<?xml version="1.0" encoding="utf-8"?>
<svg xmlns="http://www.w3.org/2000/svg" viewBox="0 0 43.988 12">
  <path d="M5.994 0C2.684 0 0 2.687 0 6s2.684 6 5.994 6 5.994-2.687 5.994-6-2.683-6-5.994-6zm.02 9.987c-2.21 0-4.002-1.784-4.002-3.987 0-2.202 1.792-3.987 4.003-3.987 2.21 0 4.003 1.785 4.003 3.987 0 2.203-1.793 3.987-4.003 3.987zM37.995 0C34.684 0 32 2.687 32 6s2.684 6 5.994 6 5.994-2.687 5.994-6-2.683-6-5.994-6zm.02 9.987c-2.21 0-4.002-1.784-4.002-3.987 0-2.202 1.792-3.987 4.003-3.987 2.21 0 4.003 1.785 4.003 3.987 0 2.203-1.793 3.987-4.003 3.987zM21.995 0C18.684 0 16 2.687 16 6s2.684 6 5.994 6 5.994-2.687 5.994-6-2.683-6-5.994-6zm.02 9.987c-2.21 0-4.002-1.784-4.002-3.987 0-2.202 1.792-3.987 4.003-3.987 2.21 0 4.003 1.785 4.003 3.987 0 2.203-1.793 3.987-4.003 3.987z"  fill="fillcolor"/>
</svg>
