<?xml version="1.0" encoding="utf-8"?>
<svg xmlns="http://www.w3.org/2000/svg" viewBox="0 0 44 40">
  <path d="M44 12.503C44 5.598 38.406 0 31.507 0 27.697 0 24.292 1.712 22 4.402 19.71 1.712 16.303 0 12.493 0 5.593 0 0 5.598 0 12.503c0 .168.02.33.025.497H0c0 14.4 17.286 22.2 22 27 4.715-4.8 22-12.6 22-27h-.025c.006-.166.025-.33.025-.497zM22 37.5C20.43 35.1 2 27 2 13h.033c-.008-.166-.024-.33-.024-.497 0-5.798 4.7-10.497 10.5-10.497 4.197 0 7.81 2.47 9.49 6.03 1.68-3.56 5.293-6.03 9.49-6.03 5.8 0 10.5 4.7 10.5 10.497 0 .168-.016.33-.023.497H42c0 14-18.43 22.1-20 24.5z" fill="fillcolor"/>
</svg>