<!-- <svg xmlns="http://www.w3.org/2000/svg" width="1701" height="200" viewBox="0 0 1701 200" version="1.1"> -->

<svg xmlns="http://www.w3.org/2000/svg" width="200" height="200" viewBox="970 0 500 200" version="1.1"><title>Analog.Cafe</title><g stroke="none" stroke-width="1" fill="none" fill-rule="evenodd"><path d="M1681 183.9L1681 200 1701 200 1701 100 1681 100 1681 135C1681 159.9 1660.8 180 1636 180L1561 180 1561 200 1641 200C1653 200 1668.6 194.6 1681 183.9ZM1461 200L1420.9 200C1396.1 200 1360.9 180 1360.9 140L1360.9 65C1360.9 40.1 1340.8 20 1315.9 20L1245.9 20C1221.1 20 1201 40.1 1201 65L1201 200 1181 200 1181 60C1181 20 1217.8 0 1241 0L1320.9 0C1360.9 0 1380.9 35.1 1380.9 60L1380.9 135C1380.9 159.9 1401.1 180 1425.9 180L1456 180C1480.8 180 1501 159.9 1501 135L1501 60C1501 20 1537.8 0 1561 0L1701 0 1701 20 1566 20C1541.1 20 1521 40.1 1521 65L1520.9 120C1520.9 139.6 1521 140 1521 140 1520.9 180 1485.8 200 1461 200ZM981 0L981 140C981 180 1016.1 200 1041 200L1161.1 200 1161.1 180 1045.9 180C1021.1 180 1001 159.9 1001 135L1001.1 0 981 0ZM1211 180L1351 180 1351 200 1211 200 1211 180ZM625.9 180L656 180C680.8 180 701 159.9 701 135L701 60C701 20 737.8 0 760.9 0L840.9 0C880.9 0 900.9 35.1 900.9 60L900.9 135C900.9 159.9 921.1 180 945.9 180L961.1 180 961.1 200 940.9 200C916.1 200 880.9 180 880.9 140L880.9 120 741 120 741 100 880.9 100 880.9 65C880.9 40.1 860.8 20 835.9 20L765.9 20C741.1 20 721 40.1 721 65L720.9 120C720.9 139.6 721 140 721 140 720.9 180 685.8 200 661 200L620.9 200C596.1 200 560.9 180 560.9 140L560.9 65C560.9 40.1 540.8 20 515.9 20L445.9 20C421.1 20 401 40.1 401 65L400.9 120C400.9 139.6 401 140 401 140 400.9 180 365.8 200 341 200L300.9 200C276.1 200 240.9 180 240.9 140L240.9 120 101 120 101 100 240.9 100 240.9 65C240.9 40.1 220.8 20 195.9 20L125.9 20C101.1 20 81 40.1 81 65L80.9 120C80.9 139.6 81 140 81 140 80.9 180 45.8 200 21 200L1 200 1.1 180 16 180C40.8 180 61 159.9 61 135L61 60C61 20 97.8 0 120.9 0L200.9 0C240.9 0 260.9 35.1 260.9 60L260.9 135C260.9 159.9 281.1 180 305.9 180L321.1 180 336.3 179.9C361.2 179.9 381 159.9 381 135L381 60C381 20 417.8 0 440.9 0L520.9 0C560.9 0 580.9 35.1 580.9 60L580.9 135C580.9 159.9 601.1 180 625.9 180Z" fill="#EC226E"/></g></svg>