<?xml version="1.0" encoding="UTF-8"?>
<svg width="1701px" height="200px" viewBox="0 0 1701 200" version="1.1" xmlns="http://www.w3.org/2000/svg" xmlns:xlink="http://www.w3.org/1999/xlink">
    <!-- Generator: Sketch 41.1 (35376) - http://www.bohemiancoding.com/sketch -->
    <title>Analog Flat</title>
    <desc>Created with Sketch.</desc>
    <defs></defs>
    <g id="Analog.Cafe-Logo" stroke="none" stroke-width="1" fill="none" fill-rule="evenodd">
        <path d="M1680.9606,183.888851 L1680.9606,200 L1700.9606,200 L1700.9606,100 L1680.9606,100 L1680.9606,134.99925 C1680.9606,159.852468 1660.81805,180 1635.96589,180 L1561,180 L1561,200 L1640.9606,200 C1652.97014,200 1668.64442,194.629617 1680.9606,183.888851 Z M1460.9606,200 L1420.93079,200 C1396.08065,200 1360.93824,180 1360.93824,140 L1360.93824,65.0007732 C1360.93824,40.1372409 1340.79593,20 1315.94912,20 L1245.94724,20 C1221.09817,20 1200.95812,40.1475324 1200.95812,65.0007732 L1200.95812,200 L1180.9606,200 L1180.9606,60 C1180.9606,20 1217.78002,-1.36424205e-12 1240.95315,-1.36424205e-12 L1320.94321,-1.36424205e-12 C1360.93824,-1.36424205e-12 1380.93576,35.1301818 1380.93576,60 L1380.93576,134.999594 C1380.93576,159.861344 1401.07826,180 1425.92529,180 L1455.96589,180 C1480.81805,180 1500.9606,159.852224 1500.9606,134.998683 L1500.9606,60 C1500.9606,20 1537.78459,-1.36424205e-12 1560.9606,-1.36424205e-12 L1700.9606,-1.36424205e-12 L1700.9606,20 L1565.95531,20 C1541.10316,20 1520.9606,40.1475324 1520.9606,65.0007732 L1520.9227,120 C1520.94789,139.558866 1520.9606,140 1520.9606,140 C1520.9227,180 1485.83042,200 1460.9606,200 Z M980.960602,-1.30317979e-12 L980.960602,140 C980.960602,180 1016.10301,200 1040.95315,200 L1161.06921,200 L1161.06921,180 L1045.94765,180 C1021.10062,180 1000.95812,159.861344 1000.95812,134.999594 L1001.06921,-1.36424205e-12 L980.960602,-1.30317979e-12 Z M1210.9606,180 L1350.9606,180 L1350.9606,200 L1210.9606,200 L1210.9606,180 Z M625.917836,180 L655.964028,180 C680.813094,180 700.953148,159.852224 700.953148,134.998683 L700.953148,60 C700.953148,20 737.772562,-1.36424205e-12 760.945694,-1.36424205e-12 L840.935756,-1.36424205e-12 C880.930786,-1.36424205e-12 900.928302,35.1301818 900.928302,60 L900.928302,134.999594 C900.928302,159.861344 921.070802,180 945.917836,180 L961.053611,180 L961.053611,200 L940.923333,200 C916.073192,200 880.930786,180 880.930786,140 L880.930786,120 L740.960602,120 L740.960602,100 L880.930786,100 L880.930786,65.0007732 C880.930786,40.1372409 860.788471,20 835.941667,20 L765.939783,20 C741.090717,20 720.950663,40.1475324 720.950663,65.0007732 L720.912767,120 C720.93795,139.558866 720.950663,140 720.950663,140 C720.912767,180 685.824846,200 660.958117,200 L620.923333,200 C596.073192,200 560.930786,180 560.930786,140 L560.930786,65.0007732 C560.930786,40.1372409 540.788471,20 515.941667,20 L445.939783,20 C421.090717,20 400.950663,40.1475324 400.950663,65.0007732 L400.912767,120 C400.93795,139.558866 400.950663,140 400.950663,140 C400.912767,180 365.824846,200 340.958117,200 L300.923333,200 C276.073192,200 240.930786,180 240.930786,140 L240.930786,120 L100.960602,120 L100.960602,100 L240.930786,100 L240.930786,65.0007732 C240.930786,40.1372409 220.788471,20 195.941667,20 L125.939783,20 C101.090717,20 80.9506634,40.1475324 80.9506634,65.0007732 L80.9127672,120 C80.9379497,139.558866 80.9506634,140 80.9506634,140 C80.9127672,180 45.8248458,200 20.9581172,200 L0.960601822,200 L1.0536107,180 L15.9640282,180 C40.813094,180 60.953148,159.852224 60.953148,134.998683 L60.953148,60 C60.953148,20 97.7725622,-1.36424205e-12 120.945694,-1.36424205e-12 L200.935756,-1.36424205e-12 C240.930786,-1.36424205e-12 260.928302,35.1301818 260.928302,60 L260.928302,134.999594 C260.928302,159.861344 281.070802,180 305.917836,180 L321.053611,180 L336.307283,179.877184 C361.156349,179.877184 380.953148,159.852224 380.953148,134.998683 L380.953148,60 C380.953148,20 417.772562,-1.36424205e-12 440.945694,-1.36424205e-12 L520.935756,-1.36424205e-12 C560.930786,-1.36424205e-12 580.928302,35.1301818 580.928302,60 L580.928302,134.999594 C580.928302,159.861344 601.070802,180 625.917836,180 Z" id="Analog-Flat" fill="#EC226E"></path>
    </g>
</svg>