<?xml version="1.0" standalone="no"?>
<!DOCTYPE svg PUBLIC "-//W3C//DTD SVG 20010904//EN"
 "http://www.w3.org/TR/2001/REC-SVG-20010904/DTD/svg10.dtd">
<svg version="1.0" xmlns="http://www.w3.org/2000/svg"
 width="16.000000pt" height="16.000000pt" viewBox="0 0 16.000000 16.000000"
 preserveAspectRatio="xMidYMid meet">
<metadata>
Created by potrace 1.11, written by Peter Selinger 2001-2013
</metadata>
<g transform="translate(0.000000,16.000000) scale(0.001173,-0.001173)"
fill="#000000" stroke="none">
<path d="M6430 13630 c-1049 -68 -2022 -350 -2914 -844 -1820 -1009 -3078
-2788 -3421 -4841 -69 -412 -89 -667 -89 -1125 0 -458 20 -713 89 -1125 480
-2872 2728 -5120 5600 -5600 412 -69 667 -89 1125 -89 458 0 713 20 1125 89
2872 480 5120 2728 5600 5600 69 412 89 667 89 1125 0 458 -20 713 -89 1125
-496 2966 -2879 5259 -5860 5640 -349 44 -937 65 -1255 45z m-4030 -6244 c0
-956 4 -1461 11 -1513 47 -351 289 -650 619 -765 156 -54 84 -51 1452 -55
l1267 -4 3 -206 c2 -138 0 -207 -8 -210 -5 -2 -606 -2 -1335 0 -1226 3 -1330
4 -1399 21 -260 61 -478 177 -654 346 -214 205 -325 423 -366 718 -8 55 -14
2159 -10 3095 0 4 95 7 210 7 l210 0 0 -1434z m6926 1409 c247 -42 464 -155
644 -335 182 -182 300 -400 366 -675 15 -62 18 -178 24 -1005 7 -964 7 -962
50 -1090 84 -248 288 -465 532 -565 136 -56 205 -67 466 -72 l242 -5 0 -209 0
-209 -242 0 c-351 0 -471 18 -670 98 -400 161 -678 478 -774 883 -16 67 -18
169 -24 1029 -6 944 -6 956 -28 1034 -49 175 -118 300 -237 425 -117 123 -250
204 -422 258 l-88 28 -864 3 c-966 3 -950 4 -1123 -66 -273 -110 -477 -342
-560 -637 l-23 -80 -3 -1487 -2 -1488 -210 0 -210 0 0 1518 c0 1646 -1 1616
55 1787 61 186 152 333 300 480 192 193 429 320 705 379 101 22 1970 22 2096
1z m404 -3955 l0 -210 -1467 2 -1468 3 -3 208 -2 207 1470 0 1470 0 0 -210z"/>
</g>
</svg>
